<svg width="252" height="27" viewBox="0 0 252 27" fill="none" xmlns="http://www.w3.org/2000/svg">
<path d="M168.315 0.0644234V16.432C168.315 17.7852 168.122 19.5251 167.026 20.2983C165.802 21.2005 164.771 21.3293 162.966 21.3293C161.162 21.3293 160.26 20.9427 158.907 20.0406C158.391 19.6539 157.876 19.0095 157.876 16.3675V0H152.205V16.3675C152.205 19.7828 153.236 22.4893 155.298 24.2935C157.296 26.0334 159.938 26.9356 163.095 26.9356C166.253 26.9356 168.83 26.0334 170.892 24.2935C172.954 22.4893 173.986 19.8473 173.986 16.3675V0H168.315V0.0644234Z" fill="#2F1B56"/>
<path d="M25.2601 0H15.4654H9.79475H0V5.67064H9.79475V26.9356H15.4654V5.67064H25.2601V0Z" fill="#2F1B56"/>
<path d="M53.8709 0H48.2002V27H53.8709V0Z" fill="#2F1B56"/>
<path d="M183.394 21.2649V0H177.724V21.2649V26.9356H183.394H197.7V21.2649H183.394Z" fill="#2F1B56"/>
<path d="M117.794 0V26.9356L112.059 22.4893L98.2048 11.6635V26.9356H92.4697V0L98.2048 4.4463L112.059 15.2721V0H117.794Z" fill="#2F1B56"/>
<path d="M44.4625 0H34.6677H28.9971V5.73508V27H34.6677V5.73508H44.4625V0Z" fill="#2F1B56"/>
<path d="M251.764 0H241.969H236.299V5.73508V27H241.969V5.73508H251.764V0Z" fill="#2F1B56"/>
<path d="M88.7325 26.9356H82.2242L73.2027 11.3413L64.1812 26.9356H57.6084L69.9163 5.67064L73.2027 0L76.4891 5.67064L88.7325 26.9356Z" fill="#2F1B56"/>
<path d="M232.562 27H225.989L216.967 11.4057L208.01 27H201.438L213.745 5.73508L216.967 0L220.254 5.73508L232.562 27Z" fill="#2F1B56"/>
<path d="M148.468 13.4678C148.468 14.8854 148.274 16.1742 147.888 17.463C146.212 22.9403 141.057 26.9356 135 26.9356C128.943 26.9356 121.532 20.8783 121.532 13.4678C121.532 6.05728 127.59 0 135 0C142.411 0 146.148 3.99522 147.888 9.47254H141.702C140.348 7.21717 137.835 5.73508 135.064 5.73508C130.747 5.73508 127.267 9.2148 127.267 13.5322C127.267 17.8496 130.747 21.3293 135.064 21.3293C139.382 21.3293 140.413 19.7828 141.766 17.5274H139.382V13.1456H148.532C148.532 13.2745 148.532 13.4033 148.532 13.5322L148.468 13.4678Z" fill="#2F1B56"/>
</svg>
